<svg xmlns="http://www.w3.org/2000/svg" version="1.1" xmlns:xlink="http://www.w3.org/1999/xlink" xmlns:svgjs="http://svgjs.com/svgjs" width="1500" height="1500"><svg xmlns="http://www.w3.org/2000/svg" version="1.1" xmlns:xlink="http://www.w3.org/1999/xlink" xmlns:svgjs="http://svgjs.dev/svgjs" width="1500" height="1500" viewBox="0 0 1500 1500"><rect width="1500" height="1500" fill="#ffffff"></rect><g transform="matrix(0.6666666666666666,0,0,0.6666666666666666,249.39393939393938,640.2104425289067)"><svg viewBox="0 0 396 87" data-background-color="#1f2d5a" preserveAspectRatio="xMidYMid meet" height="329" width="1500" xmlns="http://www.w3.org/2000/svg" xmlns:xlink="http://www.w3.org/1999/xlink"><g id="SvgjsG1005" transform="matrix(1,0,0,1,0.2400000000000091,0.048745440661633666)"><svg viewBox="0 0 395.52 86.90250911867675" height="86.90250911867675" width="395.52"><g><svg viewBox="0 0 520.5348030836715 114.37039965505504" height="86.90250911867675" width="395.52"><g><rect width="7.463126390119615" height="83.17094909792351" x="98.01469661470475" y="15.599725278565764" fill="#000000" opacity="1" stroke-width="0" stroke="transparent" fill-opacity="1" class="rect-qz-0" data-fill-palette-color="primary" rx="1%" id="SvgjsRect1004" data-palette-color="#fbfbfb"></rect></g><g transform="matrix(1,0,0,1,125.01480308367152,15.806618186769548)"><svg viewBox="0 0 395.52 82.75716328151594" height="82.75716328151594" width="395.52"><g id="SvgjsG1003"><svg viewBox="0 0 395.52 82.75716328151594" height="82.75716328151594" width="395.52" id="SvgjsSvg1002"><g><svg viewBox="0 0 395.52 82.75716328151594" height="82.75716328151594" width="395.52"><g transform="matrix(1,0,0,1,0,0)"><svg width="395.52" viewBox="3 -35.01 212.14 45.019999999999996" height="82.75716328151594" data-palette-color="#fbfbfb"><g class="wordmark-text-0" data-fill-palette-color="primary" id="SvgjsG1001"><path d="M19.7-6.86L19.7-6.86Q19.7-5.35 19.13-4 18.55-2.66 17.55-1.66 16.55-0.66 15.21-0.09 13.87 0.49 12.35 0.49L12.35 0.49 10.35 0.49Q8.84 0.49 7.5-0.09 6.15-0.66 5.15-1.66 4.15-2.66 3.58-4 3-5.35 3-6.86L3-6.86 3-18.14Q3-19.65 3.58-21 4.15-22.34 5.15-23.34 6.15-24.34 7.5-24.91 8.84-25.49 10.35-25.49L10.35-25.49 12.35-25.49Q13.87-25.49 15.21-24.91 16.55-24.34 17.55-23.34 18.55-22.34 19.13-21 19.7-19.65 19.7-18.14L19.7-18.14 19.7-6.86ZM16.7-6.69L16.7-18.31Q16.7-19.21 16.36-20.01 16.02-20.8 15.43-21.39 14.84-21.97 14.05-22.31 13.26-22.66 12.35-22.66L12.35-22.66 10.35-22.66Q9.45-22.66 8.65-22.31 7.86-21.97 7.28-21.39 6.69-20.8 6.35-20.01 6.01-19.21 6.01-18.31L6.01-18.31 6.01-6.69Q6.01-5.79 6.35-4.99 6.69-4.2 7.28-3.61 7.86-3.03 8.65-2.69 9.45-2.34 10.35-2.34L10.35-2.34 12.35-2.34Q13.26-2.34 14.05-2.69 14.84-3.03 15.43-3.61 16.02-4.2 16.36-4.99 16.7-5.79 16.7-6.69L16.7-6.69ZM42.4-6.86L42.4-6.86Q42.4-5.35 41.83-4 41.26-2.66 40.26-1.66 39.26-0.66 37.91-0.09 36.57 0.49 35.06 0.49L35.06 0.49 34.3 0.49Q32.61 0.49 31.17-0.2 29.73-0.88 28.71-2.1L28.71-2.1 28.71 10.01 25.71 10.01 25.71-25 26.71-25 28.34-22.46Q29.37-23.85 30.92-24.67 32.47-25.49 34.3-25.49L34.3-25.49 35.06-25.49Q36.57-25.49 37.91-24.91 39.26-24.34 40.26-23.34 41.26-22.34 41.83-21 42.4-19.65 42.4-18.14L42.4-18.14 42.4-6.86ZM39.4-6.69L39.4-18.31Q39.4-19.21 39.06-20.01 38.72-20.8 38.13-21.39 37.55-21.97 36.75-22.31 35.96-22.66 35.06-22.66L35.06-22.66 33.05-22.66Q32.15-22.66 31.36-22.31 30.56-21.97 29.98-21.39 29.39-20.8 29.05-20.01 28.71-19.21 28.71-18.31L28.71-18.31 28.71-6.69Q28.71-5.79 29.05-4.99 29.39-4.2 29.98-3.61 30.56-3.03 31.36-2.69 32.15-2.34 33.05-2.34L33.05-2.34 35.06-2.34Q35.96-2.34 36.75-2.69 37.55-3.03 38.13-3.61 38.72-4.2 39.06-4.99 39.4-5.79 39.4-6.69L39.4-6.69ZM65.11-6.86L65.11-6.86Q65.11-5.35 64.53-4 63.96-2.66 62.96-1.66 61.96-0.66 60.62-0.09 59.27 0.49 57.76 0.49L57.76 0.49 55.76 0.49Q54.24 0.49 52.9-0.09 51.56-0.66 50.56-1.66 49.56-2.66 48.98-4 48.41-5.35 48.41-6.86L48.41-6.86 48.41-18.14Q48.41-19.65 48.98-21 49.56-22.34 50.56-23.34 51.56-24.34 52.9-24.91 54.24-25.49 55.76-25.49L55.76-25.49 57.76-25.49Q59.27-25.49 60.62-24.91 61.96-24.34 62.96-23.34 63.96-22.34 64.53-21 65.11-19.65 65.11-18.14L65.11-18.14 65.11-12.26 51.41-12.26 51.41-6.69Q51.41-5.79 51.75-4.99 52.09-4.2 52.68-3.61 53.27-3.03 54.06-2.69 54.85-2.34 55.76-2.34L55.76-2.34 57.76-2.34Q58.66-2.34 59.46-2.69 60.25-3.03 60.83-3.61 61.42-4.2 61.76-4.99 62.1-5.79 62.1-6.69L62.1-6.69 62.1-8.35 65.11-7.86 65.11-6.86ZM62.1-14.6L62.1-18.31Q62.1-19.21 61.76-20.01 61.42-20.8 60.83-21.39 60.25-21.97 59.46-22.31 58.66-22.66 57.76-22.66L57.76-22.66 55.76-22.66Q54.85-22.66 54.06-22.31 53.27-21.97 52.68-21.39 52.09-20.8 51.75-20.01 51.41-19.21 51.41-18.31L51.41-18.31 51.41-14.6 62.1-14.6ZM87.81 0L84.81 0 84.81-18.31Q84.81-19.21 84.47-20.01 84.12-20.8 83.54-21.39 82.95-21.97 82.16-22.31 81.36-22.66 80.46-22.66L80.46-22.66 78.46-22.66Q77.56-22.66 76.76-22.31 75.97-21.97 75.38-21.39 74.8-20.8 74.46-20.01 74.11-19.21 74.11-18.31L74.11-18.31 74.11 0 71.11 0 71.11-25 72.11-25 73.75-22.46Q74.77-23.85 76.32-24.67 77.87-25.49 79.7-25.49L79.7-25.49 80.46-25.49Q81.97-25.49 83.32-24.91 84.66-24.34 85.66-23.34 86.66-22.34 87.24-21 87.81-19.65 87.81-18.14L87.81-18.14 87.81 0Z" fill="#000000" data-fill-palette-color="primary"></path><path d="M106.31 0L103.31 0 103.31-35.01 106.31-35.01 106.31 0ZM117.57-31.01L114.07-31.01 114.07-35.01 117.57-35.01 117.57-31.01ZM117.32 0L114.32 0 114.32-25 117.32-25 117.32 0ZM141.03-6.86L141.03-6.86Q141.03-5.35 140.45-4 139.88-2.66 138.88-1.66 137.88-0.66 136.53-0.09 135.19 0.49 133.68 0.49L133.68 0.49 131.67 0.49Q130.16 0.49 128.82-0.09 127.48-0.66 126.47-1.66 125.47-2.66 124.9-4 124.33-5.35 124.33-6.86L124.33-6.86 124.33-35.01 127.33-35.01 127.33-22.9Q128.35-24.12 129.79-24.8 131.24-25.49 132.92-25.49L132.92-25.49 133.68-25.49Q135.19-25.49 136.53-24.91 137.88-24.34 138.88-23.34 139.88-22.34 140.45-21 141.03-19.65 141.03-18.14L141.03-18.14 141.03-6.86ZM138.02-6.69L138.02-18.31Q138.02-19.21 137.68-20.01 137.34-20.8 136.75-21.39 136.17-21.97 135.37-22.31 134.58-22.66 133.68-22.66L133.68-22.66 131.67-22.66Q130.77-22.66 129.98-22.31 129.18-21.97 128.6-21.39 128.01-20.8 127.67-20.01 127.33-19.21 127.33-18.31L127.33-18.31 127.33-6.69Q127.33-5.79 127.67-4.99 128.01-4.2 128.6-3.61 129.18-3.03 129.98-2.69 130.77-2.34 131.67-2.34L131.67-2.34 133.68-2.34Q134.58-2.34 135.37-2.69 136.17-3.03 136.75-3.61 137.34-4.2 137.68-4.99 138.02-5.79 138.02-6.69L138.02-6.69ZM157.38-22.14L154.38-22.14Q153.47-22.14 152.68-21.8 151.89-21.46 151.3-20.87 150.72-20.29 150.37-19.49 150.03-18.7 150.03-17.8L150.03-17.8 150.03 0 147.03 0 147.03-25 148.03-25 149.67-22.46Q150.69-23.85 152.24-24.67 153.79-25.49 155.62-25.49L155.62-25.49 157.38-25.49 157.38-22.14ZM178.08 0L177.08 0 175.42-2.49Q174.39-1.15 172.86-0.33 171.32 0.49 169.49 0.49L169.49 0.49 168.73 0.49Q167.22 0.49 165.87-0.09 164.53-0.66 163.53-1.66 162.53-2.66 161.96-4 161.38-5.35 161.38-6.86L161.38-6.86 161.38-7.1Q161.38-8.62 161.96-9.96 162.53-11.3 163.53-12.3 164.53-13.31 165.87-13.88 167.22-14.45 168.73-14.45L168.73-14.45 175.08-14.45 175.08-18.31Q175.08-19.21 174.74-20.01 174.39-20.8 173.81-21.39 173.22-21.97 172.43-22.31 171.64-22.66 170.73-22.66L170.73-22.66 168.97-22.66Q168.07-22.66 167.28-22.31 166.48-21.97 165.9-21.39 165.31-20.8 164.97-20.01 164.63-19.21 164.63-18.31L164.63-18.31 164.63-17.41 161.63-17.9 161.63-18.14Q161.63-19.65 162.2-21 162.77-22.34 163.77-23.34 164.78-24.34 166.12-24.91 167.46-25.49 168.97-25.49L168.97-25.49 170.73-25.49Q172.25-25.49 173.59-24.91 174.93-24.34 175.93-23.34 176.93-22.34 177.51-21 178.08-19.65 178.08-18.14L178.08-18.14 178.08 0ZM175.08-6.69L175.08-12.11 168.73-12.11Q167.83-12.11 167.03-11.77 166.24-11.43 165.65-10.83 165.07-10.23 164.73-9.44 164.38-8.64 164.38-7.74L164.38-7.74 164.38-6.69Q164.38-5.79 164.73-4.99 165.07-4.2 165.65-3.61 166.24-3.03 167.03-2.69 167.83-2.34 168.73-2.34L168.73-2.34 170.73-2.34Q171.64-2.34 172.43-2.69 173.22-3.03 173.81-3.61 174.39-4.2 174.74-4.99 175.08-5.79 175.08-6.69L175.08-6.69ZM194.44-22.14L191.43-22.14Q190.53-22.14 189.74-21.8 188.94-21.46 188.36-20.87 187.77-20.29 187.43-19.49 187.09-18.7 187.09-17.8L187.09-17.8 187.09 0 184.08 0 184.08-25 185.09-25 186.72-22.46Q187.75-23.85 189.3-24.67 190.85-25.49 192.68-25.49L192.68-25.49 194.44-25.49 194.44-22.14ZM215.14-25L202.49 10.01 199.58 10.01 204.03-2.15 195.92-25 198.93-25 205.44-6.05 205.54-4.76 205.64-6.05 212.13-25 215.14-25Z" fill="#000000" data-fill-palette-color="accent"></path></g></svg></g></svg></g></svg></g></svg></g><g><svg viewBox="0 0 78.4777165358576 114.37039965505504" height="114.37039965505504" width="78.4777165358576"><g><svg xmlns="http://www.w3.org/2000/svg" xmlns:xlink="http://www.w3.org/1999/xlink" version="1.1" x="0" y="0" viewBox="32.502250000000004 29 34.994749999999996 51" enable-background="new 0 0 100 100" xml:space="preserve" height="114.37039965505504" width="78.4777165358576" class="icon-icon-0" data-fill-palette-color="accent" id="SvgjsSvg1000"><g fill="#2f76db" data-fill-palette-color="accent"><circle cx="50.001" cy="34" r="5.0" fill="#000000" data-fill-palette-color="accent"></circle><g fill="#2f76db" data-fill-palette-color="accent"><path d="M54.989 40c0.643-0.002 1.286 0.241 1.776 0.732l10 9.999c0.976 0.978 0.976 2.56 0 3.536C66.276 54.756 65.637 55 64.997 55c-0.639 0-1.28-0.244-1.768-0.732l-8.229-8.229v13.962V80H44.999V60.001 46.039l-8.229 8.229C36.283 54.756 35.643 55 35.003 55s-1.28-0.244-1.768-0.732c-0.977-0.977-0.977-2.559 0-3.536l9.999-9.999c0.489-0.491 1.134-0.734 1.776-0.732H54.989z" fill="#000000" data-fill-palette-color="accent"></path></g></g></svg></g></svg></g></svg></g><defs></defs></svg><rect width="395.52" height="86.90250911867675" fill="none" stroke="none" visibility="hidden"></rect></g></svg></g></svg><style>@media (prefers-color-scheme: light) { :root { filter: none; } }
</style></svg>